<svg width="33" height="32" viewBox="0 0 33 32" fill="none" xmlns="http://www.w3.org/2000/svg">
<g clip-path="url(#clip0_398_56)">
<path fill-rule="evenodd" clip-rule="evenodd" d="M16.29 -6.10352e-05C12.4189 -0.00399553 8.67289 1.37078 5.72332 3.87788C2.77375 6.38499 0.813407 9.86055 0.193595 13.6817C-0.426217 17.5029 0.335011 21.4199 2.34087 24.7308C4.34674 28.0417 7.46611 30.53 11.14 31.7499C11.95 31.8899 12.25 31.3899 12.25 30.9599C12.25 30.5299 12.25 29.5499 12.25 28.1899C7.71999 29.1899 6.75999 26.0099 6.75999 26.0099C6.46291 25.0219 5.8205 24.1737 4.94999 23.6199C3.46999 22.6199 5.05999 22.6199 5.05999 22.6199C5.57683 22.692 6.07051 22.8807 6.50364 23.1718C6.93677 23.4628 7.298 23.8486 7.55999 24.2999C7.78125 24.7011 8.07956 25.0547 8.4378 25.3403C8.79603 25.626 9.20713 25.838 9.64753 25.9644C10.0879 26.0908 10.5489 26.1289 11.0041 26.0767C11.4593 26.0244 11.8997 25.8828 12.3 25.6599C12.3645 24.8377 12.7189 24.0652 13.3 23.4799C9.68999 23.0699 5.88 21.6699 5.88 15.4299C5.85682 13.8114 6.45854 12.2462 7.55999 11.0599C7.05979 9.65233 7.11704 8.1067 7.71999 6.73994C7.71999 6.73994 9.08999 6.30994 12.2 8.40994C14.8723 7.68978 17.6877 7.68978 20.36 8.40994C23.47 6.30994 24.83 6.73994 24.83 6.73994C25.4329 8.1067 25.4902 9.65233 24.99 11.0599C26.0959 12.2434 26.6984 13.8104 26.67 15.4299C26.67 21.6799 22.86 23.0599 19.23 23.4299C19.615 23.8242 19.9128 24.2951 20.104 24.8119C20.2953 25.3287 20.3756 25.88 20.34 26.4299C20.34 28.6099 20.34 30.3699 20.34 30.8999C20.34 31.4299 20.63 31.8399 21.46 31.6799C25.1273 30.4543 28.239 27.9642 30.2388 24.6548C32.2385 21.3454 32.9959 17.4325 32.3754 13.616C31.755 9.79942 29.7971 6.328 26.852 3.82249C23.907 1.31699 20.1667 -0.0592311 16.3 -0.0600586L16.29 -6.10352e-05Z" fill="white"/>
</g>
<defs>
<clipPath id="clip0_398_56">
<rect width="32.58" height="31.77" fill="white"/>
</clipPath>
</defs>
</svg>
