<svg width="33" height="22" viewBox="0 0 33 22" fill="none" xmlns="http://www.w3.org/2000/svg">
<path d="M2.47502 0.000100799C1.98846 0.000100799 1.54197 0.149899 1.1601 0.396788L15.288 13.0488C16.0344 13.7178 16.9379 13.7178 17.6856 13.0488L31.8391 0.383352C31.4585 0.139084 31.0082 0 30.5242 0H2.47425L2.47502 0.000100799ZM0.141791 1.71871C0.0560784 1.97697 0 2.24989 0 2.53857V19.4615C0 20.8679 1.10384 22 2.47504 22H30.525C31.8962 22 33 20.8679 33 19.4615V2.53857C33 2.24992 32.9439 1.97701 32.8582 1.71893L18.7691 14.3312C17.4565 15.5056 15.5182 15.494 14.2058 14.3181L0.142369 1.71869L0.141791 1.71871Z" fill="white"/>
</svg>
